<svg width="24" height="17" viewBox="0 0 24 17" fill="none" xmlns="http://www.w3.org/2000/svg">
<path d="M15.434 8.36719L23.2049 13.2799V3.24707L15.434 8.36719Z" fill="#161616"/>
<path d="M0.154297 3.24707V13.2799L7.92524 8.36719L0.154297 3.24707Z" fill="#161616"/>
<path d="M21.7643 0.325439H1.59495C0.876063 0.325439 0.30556 0.861367 0.19751 1.55145L11.6796 9.11638L23.1617 1.55145C23.0537 0.861367 22.4832 0.325439 21.7643 0.325439Z" fill="#161616"/>
<path d="M14.1144 9.23728L12.0758 10.58C11.9548 10.6592 11.818 10.6981 11.6797 10.6981C11.5414 10.6981 11.4045 10.6592 11.2835 10.58L9.24493 9.23584L0.200439 14.9567C0.311371 15.641 0.878992 16.1726 1.595 16.1726H21.7643C22.4803 16.1726 23.0479 15.641 23.1589 14.9567L14.1144 9.23728Z" fill="#161616"/>
</svg>
