<svg width="26" height="26" viewBox="0 0 26 26" fill="none" xmlns="http://www.w3.org/2000/svg">
<g clip-path="url(#clip0)">
<path d="M12.9307 6.80078C9.3859 6.80078 6.51611 9.6737 6.51611 13.2154C6.51611 16.7602 9.38903 19.63 12.9307 19.63C16.4755 19.63 19.3453 16.757 19.3453 13.2154C19.3453 9.67057 16.4724 6.80078 12.9307 6.80078ZM12.9307 17.3789C10.6297 17.3789 8.76715 15.5154 8.76715 13.2154C8.76715 10.9154 10.6307 9.05182 12.9307 9.05182C15.2307 9.05182 17.0942 10.9154 17.0942 13.2154C17.0953 15.5154 15.2317 17.3789 12.9307 17.3789Z" fill="black"/>
<path d="M18.0807 0.798743C15.7807 0.691451 10.0838 0.696659 7.78171 0.798743C5.7588 0.893534 3.97442 1.38208 2.53588 2.82062C0.131715 5.22478 0.439006 8.46437 0.439006 13.2154C0.439006 18.0779 0.168173 21.2425 2.53588 23.6102C4.94942 26.0227 8.23588 25.7071 12.9307 25.7071C17.7473 25.7071 19.4098 25.7102 21.113 25.0508C23.4286 24.1519 25.1765 22.0821 25.3473 18.3644C25.4557 16.0633 25.4494 10.3675 25.3473 8.06541C25.1411 3.67687 22.7859 1.01541 18.0807 0.798743ZM21.7213 22.0196C20.1453 23.5956 17.9588 23.455 12.9005 23.455C7.69213 23.455 5.60359 23.5321 4.07963 22.004C2.32442 20.2571 2.64213 17.4519 2.64213 13.1987C2.64213 7.44353 2.05151 3.29874 7.82755 3.00291C9.15463 2.95603 9.54526 2.94041 12.8859 2.94041L12.9328 2.97166C18.4838 2.97166 22.839 2.39041 23.1005 8.16541C23.1598 9.48312 23.1734 9.87895 23.1734 13.2144C23.1723 18.3623 23.2703 20.4633 21.7213 22.0196Z" fill="black"/>
<path d="M19.5995 8.04674C20.4274 8.04674 21.0985 7.37563 21.0985 6.54778C21.0985 5.71993 20.4274 5.04883 19.5995 5.04883C18.7717 5.04883 18.1006 5.71993 18.1006 6.54778C18.1006 7.37563 18.7717 8.04674 19.5995 8.04674Z" fill="black"/>
</g>
<defs>
<clipPath id="clip0">
<rect x="0.426758" y="0.719727" width="25" height="25" fill="white"/>
</clipPath>
</defs>
</svg>
