<svg width="24" height="20" viewBox="0 0 24 20" fill="none" xmlns="http://www.w3.org/2000/svg">
<path d="M23.5578 2.87092C22.7115 3.24216 21.8097 3.48824 20.8696 3.60772C21.8368 3.03023 22.575 2.12275 22.922 1.02894C22.0203 1.5666 21.0246 1.94638 19.9635 2.15831C19.1072 1.24657 17.8868 0.681885 16.5555 0.681885C13.9724 0.681885 11.8929 2.77847 11.8929 5.34871C11.8929 5.71852 11.9242 6.07412 12.001 6.41264C8.12221 6.22347 4.69001 4.36442 2.38433 1.53247C1.9818 2.23085 1.74569 3.03023 1.74569 3.89077C1.74569 5.50659 2.57778 6.93892 3.81809 7.76817C3.0685 7.75395 2.33313 7.53632 1.71013 7.19353C1.71013 7.20775 1.71013 7.22624 1.71013 7.24474C1.71013 9.512 3.32737 11.3952 5.44813 11.8291C5.06836 11.9329 4.65445 11.9827 4.22489 11.9827C3.92619 11.9827 3.62465 11.9656 3.34159 11.903C3.9461 13.7507 5.66149 15.1091 7.70118 15.1532C6.11381 16.3949 4.0983 17.1431 1.91637 17.1431C1.53375 17.1431 1.16678 17.126 0.799805 17.0791C2.86652 18.4118 5.31585 19.1728 7.95721 19.1728C16.5427 19.1728 21.2365 12.0609 21.2365 5.89632C21.2365 5.69008 21.2294 5.49094 21.2195 5.29323C22.1454 4.63609 22.9235 3.81538 23.5578 2.87092Z" fill="#161616"/>
</svg>
