<svg width="26" height="15" viewBox="0 0 26 15" fill="none" xmlns="http://www.w3.org/2000/svg">
<path d="M25.2039 12.8099C25.1367 12.6974 24.7211 11.7942 22.7209 9.93777C20.627 7.99388 20.9083 8.30953 23.4304 4.94834C24.9664 2.90132 25.5805 1.65122 25.3883 1.11681C25.2055 0.607397 24.0757 0.741782 24.0757 0.741782L20.3192 0.763659C20.3192 0.763659 20.041 0.726156 19.8332 0.849603C19.6316 0.971487 19.5019 1.25276 19.5019 1.25276C19.5019 1.25276 18.9066 2.83725 18.1128 4.18422C16.4392 7.02662 15.7689 7.17663 15.4954 7.00006C14.8594 6.58909 15.0188 5.34681 15.0188 4.46549C15.0188 1.7106 15.436 0.562081 14.2047 0.265185C13.7953 0.16674 13.4953 0.10111 12.4499 0.0901717C11.1091 0.0761081 9.97312 0.0948595 9.33089 0.408945C8.90273 0.618336 8.57302 1.08556 8.7746 1.11212C9.02305 1.14494 9.58559 1.2637 9.88405 1.66998C10.27 2.19345 10.256 3.37166 10.256 3.37166C10.256 3.37166 10.4778 6.61409 9.73873 7.01725C9.23088 7.29383 8.53551 6.72972 7.04322 4.14985C6.2791 2.82944 5.70093 1.36839 5.70093 1.36839C5.70093 1.36839 5.58999 1.0965 5.39153 0.951173C5.15089 0.774597 4.81337 0.718343 4.81337 0.718343L1.24123 0.74022C1.24123 0.74022 0.705252 0.755846 0.508363 0.988676C0.33335 1.1965 0.494299 1.62466 0.494299 1.62466C0.494299 1.62466 3.29138 8.16733 6.45724 11.466C9.36214 14.4897 12.6593 14.2912 12.6593 14.2912H14.1531C14.1531 14.2912 14.6047 14.2412 14.8344 13.9928C15.0469 13.7646 15.0391 13.3365 15.0391 13.3365C15.0391 13.3365 15.0094 11.3316 15.9407 11.0363C16.858 10.7456 18.0362 12.9739 19.2847 13.8318C20.2286 14.4803 20.9458 14.3381 20.9458 14.3381L24.2851 14.2912C24.2851 14.2912 26.0321 14.1834 25.2039 12.8099Z" fill="black"/>
</svg>
