<svg width="24" height="17" viewBox="0 0 24 17" fill="none" xmlns="http://www.w3.org/2000/svg">
<path d="M22.2684 2.03433C21.6511 0.936256 20.9811 0.734278 19.6171 0.65747C18.2544 0.565016 14.8279 0.526611 11.8594 0.526611C8.88521 0.526611 5.45728 0.565016 4.09607 0.656048C2.73485 0.734279 2.06349 0.934834 1.44049 2.03433C0.804686 3.13098 0.477539 5.0199 0.477539 8.34542C0.477539 8.34827 0.477539 8.34969 0.477539 8.34969C0.477539 8.35253 0.477539 8.35396 0.477539 8.35396V8.3568C0.477539 11.6681 0.804686 13.5712 1.44049 14.6565C2.06349 15.7546 2.73343 15.9537 4.09465 16.0462C5.45728 16.1258 8.88521 16.1728 11.8594 16.1728C14.8279 16.1728 18.2544 16.1258 19.6185 16.0476C20.9825 15.9551 21.6525 15.756 22.2698 14.6579C22.9113 13.5727 23.2356 11.6695 23.2356 8.35822C23.2356 8.35822 23.2356 8.35396 23.2356 8.35111C23.2356 8.35111 23.2356 8.34827 23.2356 8.34684C23.2356 5.0199 22.9113 3.13098 22.2684 2.03433ZM9.01181 12.6168V4.08256L16.1237 8.34969L9.01181 12.6168Z" fill="#161616"/>
</svg>
